<mxfile host="65bd71144e" modified="2021-02-24T16:27:31.069Z" agent="5.0 (Windows NT 10.0; Win64; x64) AppleWebKit/537.36 (KHTML, like Gecko) Code/1.51.1 Chrome/83.0.4103.122 Electron/9.3.3 Safari/537.36" etag="hPMOU_QdgU5_W7v9dyJG" version="14.2.4" type="embed">
    <diagram id="C5RBs43oDa-KdzZeNtuy" name="Page-1">
        <mxGraphModel dx="1920" dy="634" grid="1" gridSize="10" guides="1" tooltips="1" connect="1" arrows="1" fold="1" page="1" pageScale="1" pageWidth="827" pageHeight="1169" math="0" shadow="0">
            <root>
                <mxCell id="WIyWlLk6GJQsqaUBKTNV-0"/>
                <mxCell id="WIyWlLk6GJQsqaUBKTNV-1" parent="WIyWlLk6GJQsqaUBKTNV-0"/>
                <mxCell id="WIyWlLk6GJQsqaUBKTNV-2" value="" style="rounded=0;html=1;jettySize=auto;orthogonalLoop=1;fontSize=11;endArrow=block;endFill=0;endSize=8;strokeWidth=1;shadow=0;labelBackgroundColor=none;edgeStyle=orthogonalEdgeStyle;" parent="WIyWlLk6GJQsqaUBKTNV-1" edge="1">
                    <mxGeometry relative="1" as="geometry">
                        <mxPoint x="220" y="120" as="sourcePoint"/>
                    </mxGeometry>
                </mxCell>
                <mxCell id="WIyWlLk6GJQsqaUBKTNV-4" value="Yes" style="rounded=0;html=1;jettySize=auto;orthogonalLoop=1;fontSize=11;endArrow=block;endFill=0;endSize=8;strokeWidth=1;shadow=0;labelBackgroundColor=none;edgeStyle=orthogonalEdgeStyle;" parent="WIyWlLk6GJQsqaUBKTNV-1" edge="1">
                    <mxGeometry y="20" relative="1" as="geometry">
                        <mxPoint as="offset"/>
                        <mxPoint x="220" y="290" as="targetPoint"/>
                    </mxGeometry>
                </mxCell>
                <mxCell id="WIyWlLk6GJQsqaUBKTNV-5" value="No" style="edgeStyle=orthogonalEdgeStyle;rounded=0;html=1;jettySize=auto;orthogonalLoop=1;fontSize=11;endArrow=block;endFill=0;endSize=8;strokeWidth=1;shadow=0;labelBackgroundColor=none;" parent="WIyWlLk6GJQsqaUBKTNV-1" edge="1">
                    <mxGeometry y="10" relative="1" as="geometry">
                        <mxPoint as="offset"/>
                        <mxPoint x="320" y="210" as="targetPoint"/>
                    </mxGeometry>
                </mxCell>
                <mxCell id="Sq9aumqmgyQMLLijxD1I-1" value="" style="edgeStyle=orthogonalEdgeStyle;rounded=0;orthogonalLoop=1;jettySize=auto;html=1;" parent="WIyWlLk6GJQsqaUBKTNV-1" edge="1">
                    <mxGeometry relative="1" as="geometry">
                        <mxPoint x="220" y="330" as="targetPoint"/>
                    </mxGeometry>
                </mxCell>
                <mxCell id="WIyWlLk6GJQsqaUBKTNV-8" value="No" style="rounded=0;html=1;jettySize=auto;orthogonalLoop=1;fontSize=11;endArrow=block;endFill=0;endSize=8;strokeWidth=1;shadow=0;labelBackgroundColor=none;edgeStyle=orthogonalEdgeStyle;" parent="WIyWlLk6GJQsqaUBKTNV-1" edge="1">
                    <mxGeometry x="0.3333" y="20" relative="1" as="geometry">
                        <mxPoint as="offset"/>
                        <mxPoint x="220" y="430" as="targetPoint"/>
                    </mxGeometry>
                </mxCell>
                <mxCell id="WIyWlLk6GJQsqaUBKTNV-9" value="Yes" style="edgeStyle=orthogonalEdgeStyle;rounded=0;html=1;jettySize=auto;orthogonalLoop=1;fontSize=11;endArrow=block;endFill=0;endSize=8;strokeWidth=1;shadow=0;labelBackgroundColor=none;" parent="WIyWlLk6GJQsqaUBKTNV-1" edge="1">
                    <mxGeometry y="10" relative="1" as="geometry">
                        <mxPoint as="offset"/>
                        <mxPoint x="320" y="330" as="targetPoint"/>
                    </mxGeometry>
                </mxCell>
                <mxCell id="Sq9aumqmgyQMLLijxD1I-67" style="edgeStyle=orthogonalEdgeStyle;rounded=0;orthogonalLoop=1;jettySize=auto;html=1;exitX=0.25;exitY=0;exitDx=0;exitDy=0;entryX=0.5;entryY=1;entryDx=0;entryDy=0;strokeColor=#000000;" parent="WIyWlLk6GJQsqaUBKTNV-1" source="Sq9aumqmgyQMLLijxD1I-2" target="Sq9aumqmgyQMLLijxD1I-66" edge="1">
                    <mxGeometry relative="1" as="geometry"/>
                </mxCell>
                <mxCell id="Sq9aumqmgyQMLLijxD1I-83" style="edgeStyle=orthogonalEdgeStyle;rounded=0;orthogonalLoop=1;jettySize=auto;html=1;exitX=0.5;exitY=0;exitDx=0;exitDy=0;entryX=0.5;entryY=1;entryDx=0;entryDy=0;strokeColor=#000000;" parent="WIyWlLk6GJQsqaUBKTNV-1" source="Sq9aumqmgyQMLLijxD1I-2" target="Sq9aumqmgyQMLLijxD1I-82" edge="1">
                    <mxGeometry relative="1" as="geometry"/>
                </mxCell>
                <mxCell id="1" style="edgeStyle=orthogonalEdgeStyle;rounded=0;orthogonalLoop=1;jettySize=auto;html=1;exitX=0;exitY=0;exitDx=0;exitDy=0;" edge="1" parent="WIyWlLk6GJQsqaUBKTNV-1" source="Sq9aumqmgyQMLLijxD1I-2">
                    <mxGeometry relative="1" as="geometry">
                        <mxPoint x="300" y="290" as="targetPoint"/>
                    </mxGeometry>
                </mxCell>
                <mxCell id="Sq9aumqmgyQMLLijxD1I-2" value="SALIDAS" style="rounded=0;whiteSpace=wrap;html=1;" parent="WIyWlLk6GJQsqaUBKTNV-1" vertex="1">
                    <mxGeometry x="380" y="340" width="120" height="60" as="geometry"/>
                </mxCell>
                <mxCell id="Sq9aumqmgyQMLLijxD1I-89" style="edgeStyle=orthogonalEdgeStyle;rounded=0;orthogonalLoop=1;jettySize=auto;html=1;exitX=0;exitY=0;exitDx=0;exitDy=0;entryX=1;entryY=0.5;entryDx=0;entryDy=0;strokeColor=#000000;" parent="WIyWlLk6GJQsqaUBKTNV-1" source="Sq9aumqmgyQMLLijxD1I-3" target="Sq9aumqmgyQMLLijxD1I-84" edge="1">
                    <mxGeometry relative="1" as="geometry"/>
                </mxCell>
                <mxCell id="Sq9aumqmgyQMLLijxD1I-90" style="edgeStyle=orthogonalEdgeStyle;rounded=0;orthogonalLoop=1;jettySize=auto;html=1;exitX=0;exitY=0.25;exitDx=0;exitDy=0;entryX=1;entryY=0.5;entryDx=0;entryDy=0;strokeColor=#000000;" parent="WIyWlLk6GJQsqaUBKTNV-1" source="Sq9aumqmgyQMLLijxD1I-3" target="Sq9aumqmgyQMLLijxD1I-85" edge="1">
                    <mxGeometry relative="1" as="geometry"/>
                </mxCell>
                <mxCell id="Sq9aumqmgyQMLLijxD1I-91" style="edgeStyle=orthogonalEdgeStyle;rounded=0;orthogonalLoop=1;jettySize=auto;html=1;exitX=0;exitY=0.5;exitDx=0;exitDy=0;entryX=1;entryY=0.5;entryDx=0;entryDy=0;strokeColor=#000000;" parent="WIyWlLk6GJQsqaUBKTNV-1" source="Sq9aumqmgyQMLLijxD1I-3" target="Sq9aumqmgyQMLLijxD1I-86" edge="1">
                    <mxGeometry relative="1" as="geometry"/>
                </mxCell>
                <mxCell id="Sq9aumqmgyQMLLijxD1I-92" style="edgeStyle=orthogonalEdgeStyle;rounded=0;orthogonalLoop=1;jettySize=auto;html=1;exitX=0;exitY=0.75;exitDx=0;exitDy=0;entryX=1;entryY=0.5;entryDx=0;entryDy=0;strokeColor=#000000;" parent="WIyWlLk6GJQsqaUBKTNV-1" source="Sq9aumqmgyQMLLijxD1I-3" target="Sq9aumqmgyQMLLijxD1I-87" edge="1">
                    <mxGeometry relative="1" as="geometry"/>
                </mxCell>
                <mxCell id="Sq9aumqmgyQMLLijxD1I-93" style="edgeStyle=orthogonalEdgeStyle;rounded=0;orthogonalLoop=1;jettySize=auto;html=1;exitX=0;exitY=1;exitDx=0;exitDy=0;entryX=1;entryY=0.5;entryDx=0;entryDy=0;strokeColor=#000000;" parent="WIyWlLk6GJQsqaUBKTNV-1" source="Sq9aumqmgyQMLLijxD1I-3" target="Sq9aumqmgyQMLLijxD1I-88" edge="1">
                    <mxGeometry relative="1" as="geometry"/>
                </mxCell>
                <mxCell id="Sq9aumqmgyQMLLijxD1I-3" value="PRODUCTO" style="rounded=0;whiteSpace=wrap;html=1;" parent="WIyWlLk6GJQsqaUBKTNV-1" vertex="1">
                    <mxGeometry x="80" y="340" width="120" height="60" as="geometry"/>
                </mxCell>
                <mxCell id="Sq9aumqmgyQMLLijxD1I-4" value="" style="endArrow=none;html=1;entryX=0;entryY=0.5;entryDx=0;entryDy=0;" parent="WIyWlLk6GJQsqaUBKTNV-1" target="Sq9aumqmgyQMLLijxD1I-2" edge="1">
                    <mxGeometry width="50" height="50" relative="1" as="geometry">
                        <mxPoint x="320" y="370" as="sourcePoint"/>
                        <mxPoint x="250" y="330" as="targetPoint"/>
                    </mxGeometry>
                </mxCell>
                <mxCell id="Sq9aumqmgyQMLLijxD1I-5" value="I" style="text;html=1;strokeColor=none;fillColor=none;align=center;verticalAlign=middle;whiteSpace=wrap;rounded=0;" parent="WIyWlLk6GJQsqaUBKTNV-1" vertex="1">
                    <mxGeometry x="200" y="350" width="40" height="20" as="geometry"/>
                </mxCell>
                <mxCell id="Sq9aumqmgyQMLLijxD1I-6" value="N" style="text;html=1;strokeColor=none;fillColor=none;align=center;verticalAlign=middle;whiteSpace=wrap;rounded=0;" parent="WIyWlLk6GJQsqaUBKTNV-1" vertex="1">
                    <mxGeometry x="340" y="350" width="40" height="20" as="geometry"/>
                </mxCell>
                <mxCell id="Sq9aumqmgyQMLLijxD1I-7" value="" style="rhombus;whiteSpace=wrap;html=1;" parent="WIyWlLk6GJQsqaUBKTNV-1" vertex="1">
                    <mxGeometry x="280" y="347.5" width="40" height="45" as="geometry"/>
                </mxCell>
                <mxCell id="Sq9aumqmgyQMLLijxD1I-9" value="" style="endArrow=none;html=1;exitX=1;exitY=0.5;exitDx=0;exitDy=0;" parent="WIyWlLk6GJQsqaUBKTNV-1" source="Sq9aumqmgyQMLLijxD1I-3" edge="1">
                    <mxGeometry width="50" height="50" relative="1" as="geometry">
                        <mxPoint x="230" y="420" as="sourcePoint"/>
                        <mxPoint x="280" y="370" as="targetPoint"/>
                    </mxGeometry>
                </mxCell>
                <mxCell id="Sq9aumqmgyQMLLijxD1I-10" value="" style="endArrow=none;html=1;exitX=0.5;exitY=0;exitDx=0;exitDy=0;" parent="WIyWlLk6GJQsqaUBKTNV-1" source="Sq9aumqmgyQMLLijxD1I-12" target="Sq9aumqmgyQMLLijxD1I-11" edge="1">
                    <mxGeometry width="50" height="50" relative="1" as="geometry">
                        <mxPoint x="142" y="260" as="sourcePoint"/>
                        <mxPoint x="140" y="240" as="targetPoint"/>
                    </mxGeometry>
                </mxCell>
                <mxCell id="Sq9aumqmgyQMLLijxD1I-73" style="edgeStyle=orthogonalEdgeStyle;rounded=0;orthogonalLoop=1;jettySize=auto;html=1;exitX=0;exitY=0;exitDx=0;exitDy=0;entryX=0.5;entryY=1;entryDx=0;entryDy=0;strokeColor=#000000;" parent="WIyWlLk6GJQsqaUBKTNV-1" source="Sq9aumqmgyQMLLijxD1I-11" target="Sq9aumqmgyQMLLijxD1I-81" edge="1">
                    <mxGeometry relative="1" as="geometry">
                        <mxPoint x="47.5" y="130" as="targetPoint"/>
                    </mxGeometry>
                </mxCell>
                <mxCell id="Sq9aumqmgyQMLLijxD1I-76" style="edgeStyle=orthogonalEdgeStyle;rounded=0;orthogonalLoop=1;jettySize=auto;html=1;exitX=0.75;exitY=0;exitDx=0;exitDy=0;entryX=0.5;entryY=1;entryDx=0;entryDy=0;strokeColor=#000000;" parent="WIyWlLk6GJQsqaUBKTNV-1" source="Sq9aumqmgyQMLLijxD1I-11" target="Sq9aumqmgyQMLLijxD1I-80" edge="1">
                    <mxGeometry relative="1" as="geometry">
                        <mxPoint x="240" y="130" as="targetPoint"/>
                    </mxGeometry>
                </mxCell>
                <mxCell id="Sq9aumqmgyQMLLijxD1I-79" style="edgeStyle=orthogonalEdgeStyle;rounded=0;orthogonalLoop=1;jettySize=auto;html=1;exitX=1;exitY=1;exitDx=0;exitDy=0;strokeColor=#000000;" parent="WIyWlLk6GJQsqaUBKTNV-1" source="Sq9aumqmgyQMLLijxD1I-11" target="Sq9aumqmgyQMLLijxD1I-78" edge="1">
                    <mxGeometry relative="1" as="geometry"/>
                </mxCell>
                <mxCell id="Sq9aumqmgyQMLLijxD1I-11" value="ESPECIFICACIONES" style="rounded=0;whiteSpace=wrap;html=1;" parent="WIyWlLk6GJQsqaUBKTNV-1" vertex="1">
                    <mxGeometry x="77.5" y="170" width="125" height="50" as="geometry"/>
                </mxCell>
                <mxCell id="Sq9aumqmgyQMLLijxD1I-12" value="" style="rhombus;whiteSpace=wrap;html=1;" parent="WIyWlLk6GJQsqaUBKTNV-1" vertex="1">
                    <mxGeometry x="120" y="250" width="40" height="40" as="geometry"/>
                </mxCell>
                <mxCell id="Sq9aumqmgyQMLLijxD1I-13" value="" style="endArrow=none;html=1;entryX=0.5;entryY=1;entryDx=0;entryDy=0;exitX=0.5;exitY=0;exitDx=0;exitDy=0;" parent="WIyWlLk6GJQsqaUBKTNV-1" source="Sq9aumqmgyQMLLijxD1I-18" target="Sq9aumqmgyQMLLijxD1I-3" edge="1">
                    <mxGeometry width="50" height="50" relative="1" as="geometry">
                        <mxPoint x="140" y="440" as="sourcePoint"/>
                        <mxPoint x="139" y="440" as="targetPoint"/>
                    </mxGeometry>
                </mxCell>
                <mxCell id="Sq9aumqmgyQMLLijxD1I-15" value="" style="endArrow=none;html=1;exitX=0.5;exitY=0;exitDx=0;exitDy=0;entryX=0.5;entryY=1;entryDx=0;entryDy=0;" parent="WIyWlLk6GJQsqaUBKTNV-1" source="Sq9aumqmgyQMLLijxD1I-3" target="Sq9aumqmgyQMLLijxD1I-12" edge="1">
                    <mxGeometry width="50" height="50" relative="1" as="geometry">
                        <mxPoint x="60" y="330" as="sourcePoint"/>
                        <mxPoint x="110" y="280" as="targetPoint"/>
                    </mxGeometry>
                </mxCell>
                <mxCell id="Sq9aumqmgyQMLLijxD1I-16" value="I" style="text;html=1;strokeColor=none;fillColor=none;align=center;verticalAlign=middle;whiteSpace=wrap;rounded=0;" parent="WIyWlLk6GJQsqaUBKTNV-1" vertex="1">
                    <mxGeometry x="140" y="320" width="40" height="20" as="geometry"/>
                </mxCell>
                <mxCell id="Sq9aumqmgyQMLLijxD1I-17" value="N" style="text;html=1;strokeColor=none;fillColor=none;align=center;verticalAlign=middle;whiteSpace=wrap;rounded=0;" parent="WIyWlLk6GJQsqaUBKTNV-1" vertex="1">
                    <mxGeometry x="140" y="220" width="40" height="20" as="geometry"/>
                </mxCell>
                <mxCell id="Sq9aumqmgyQMLLijxD1I-18" value="" style="rhombus;whiteSpace=wrap;html=1;" parent="WIyWlLk6GJQsqaUBKTNV-1" vertex="1">
                    <mxGeometry x="120" y="460" width="40" height="40" as="geometry"/>
                </mxCell>
                <mxCell id="Sq9aumqmgyQMLLijxD1I-19" value="" style="endArrow=none;html=1;entryX=0.5;entryY=1;entryDx=0;entryDy=0;exitX=0.5;exitY=0;exitDx=0;exitDy=0;" parent="WIyWlLk6GJQsqaUBKTNV-1" source="Sq9aumqmgyQMLLijxD1I-20" target="Sq9aumqmgyQMLLijxD1I-18" edge="1">
                    <mxGeometry width="50" height="50" relative="1" as="geometry">
                        <mxPoint x="140" y="570" as="sourcePoint"/>
                        <mxPoint x="150" y="535" as="targetPoint"/>
                    </mxGeometry>
                </mxCell>
                <mxCell id="Sq9aumqmgyQMLLijxD1I-101" style="edgeStyle=orthogonalEdgeStyle;rounded=0;orthogonalLoop=1;jettySize=auto;html=1;exitX=0;exitY=0;exitDx=0;exitDy=0;entryX=1;entryY=0.5;entryDx=0;entryDy=0;strokeColor=#000000;" parent="WIyWlLk6GJQsqaUBKTNV-1" source="Sq9aumqmgyQMLLijxD1I-20" target="Sq9aumqmgyQMLLijxD1I-96" edge="1">
                    <mxGeometry relative="1" as="geometry"/>
                </mxCell>
                <mxCell id="Sq9aumqmgyQMLLijxD1I-102" style="edgeStyle=orthogonalEdgeStyle;rounded=0;orthogonalLoop=1;jettySize=auto;html=1;exitX=0;exitY=0.25;exitDx=0;exitDy=0;entryX=1;entryY=0.5;entryDx=0;entryDy=0;strokeColor=#000000;" parent="WIyWlLk6GJQsqaUBKTNV-1" source="Sq9aumqmgyQMLLijxD1I-20" target="Sq9aumqmgyQMLLijxD1I-94" edge="1">
                    <mxGeometry relative="1" as="geometry"/>
                </mxCell>
                <mxCell id="Sq9aumqmgyQMLLijxD1I-103" style="edgeStyle=orthogonalEdgeStyle;rounded=0;orthogonalLoop=1;jettySize=auto;html=1;exitX=0;exitY=0.5;exitDx=0;exitDy=0;entryX=1;entryY=0.5;entryDx=0;entryDy=0;strokeColor=#000000;" parent="WIyWlLk6GJQsqaUBKTNV-1" source="Sq9aumqmgyQMLLijxD1I-20" target="Sq9aumqmgyQMLLijxD1I-95" edge="1">
                    <mxGeometry relative="1" as="geometry"/>
                </mxCell>
                <mxCell id="Sq9aumqmgyQMLLijxD1I-104" style="edgeStyle=orthogonalEdgeStyle;rounded=0;orthogonalLoop=1;jettySize=auto;html=1;exitX=0;exitY=0.75;exitDx=0;exitDy=0;entryX=1;entryY=0.5;entryDx=0;entryDy=0;strokeColor=#000000;" parent="WIyWlLk6GJQsqaUBKTNV-1" source="Sq9aumqmgyQMLLijxD1I-20" target="Sq9aumqmgyQMLLijxD1I-97" edge="1">
                    <mxGeometry relative="1" as="geometry"/>
                </mxCell>
                <mxCell id="Sq9aumqmgyQMLLijxD1I-105" style="edgeStyle=orthogonalEdgeStyle;rounded=0;orthogonalLoop=1;jettySize=auto;html=1;exitX=0;exitY=1;exitDx=0;exitDy=0;entryX=1;entryY=0;entryDx=0;entryDy=0;strokeColor=#000000;" parent="WIyWlLk6GJQsqaUBKTNV-1" source="Sq9aumqmgyQMLLijxD1I-20" target="Sq9aumqmgyQMLLijxD1I-98" edge="1">
                    <mxGeometry relative="1" as="geometry"/>
                </mxCell>
                <mxCell id="Sq9aumqmgyQMLLijxD1I-106" style="edgeStyle=orthogonalEdgeStyle;rounded=0;orthogonalLoop=1;jettySize=auto;html=1;exitX=0.25;exitY=1;exitDx=0;exitDy=0;entryX=0.5;entryY=0;entryDx=0;entryDy=0;strokeColor=#000000;" parent="WIyWlLk6GJQsqaUBKTNV-1" source="Sq9aumqmgyQMLLijxD1I-20" target="Sq9aumqmgyQMLLijxD1I-99" edge="1">
                    <mxGeometry relative="1" as="geometry"/>
                </mxCell>
                <mxCell id="Sq9aumqmgyQMLLijxD1I-107" style="edgeStyle=orthogonalEdgeStyle;rounded=0;orthogonalLoop=1;jettySize=auto;html=1;exitX=0.5;exitY=1;exitDx=0;exitDy=0;entryX=0.5;entryY=0;entryDx=0;entryDy=0;strokeColor=#000000;" parent="WIyWlLk6GJQsqaUBKTNV-1" source="Sq9aumqmgyQMLLijxD1I-20" target="Sq9aumqmgyQMLLijxD1I-100" edge="1">
                    <mxGeometry relative="1" as="geometry"/>
                </mxCell>
                <mxCell id="Sq9aumqmgyQMLLijxD1I-20" value="PROVEDOR" style="rounded=0;whiteSpace=wrap;html=1;" parent="WIyWlLk6GJQsqaUBKTNV-1" vertex="1">
                    <mxGeometry x="80" y="570" width="120" height="60" as="geometry"/>
                </mxCell>
                <mxCell id="Sq9aumqmgyQMLLijxD1I-21" value="N" style="text;html=1;strokeColor=none;fillColor=none;align=center;verticalAlign=middle;whiteSpace=wrap;rounded=0;" parent="WIyWlLk6GJQsqaUBKTNV-1" vertex="1">
                    <mxGeometry x="140" y="400" width="40" height="20" as="geometry"/>
                </mxCell>
                <mxCell id="Sq9aumqmgyQMLLijxD1I-22" value="N" style="text;html=1;strokeColor=none;fillColor=none;align=center;verticalAlign=middle;whiteSpace=wrap;rounded=0;" parent="WIyWlLk6GJQsqaUBKTNV-1" vertex="1">
                    <mxGeometry x="140" y="540" width="40" height="20" as="geometry"/>
                </mxCell>
                <mxCell id="Sq9aumqmgyQMLLijxD1I-24" value="" style="endArrow=none;html=1;exitX=1;exitY=0.5;exitDx=0;exitDy=0;entryX=0;entryY=0.5;entryDx=0;entryDy=0;" parent="WIyWlLk6GJQsqaUBKTNV-1" source="Sq9aumqmgyQMLLijxD1I-2" target="Sq9aumqmgyQMLLijxD1I-26" edge="1">
                    <mxGeometry width="50" height="50" relative="1" as="geometry">
                        <mxPoint x="560" y="385" as="sourcePoint"/>
                        <mxPoint x="590" y="370" as="targetPoint"/>
                    </mxGeometry>
                </mxCell>
                <mxCell id="Sq9aumqmgyQMLLijxD1I-26" value="" style="rhombus;whiteSpace=wrap;html=1;" parent="WIyWlLk6GJQsqaUBKTNV-1" vertex="1">
                    <mxGeometry x="580" y="348.75" width="40" height="42.5" as="geometry"/>
                </mxCell>
                <mxCell id="Sq9aumqmgyQMLLijxD1I-27" value="N" style="text;html=1;strokeColor=none;fillColor=none;align=center;verticalAlign=middle;whiteSpace=wrap;rounded=0;" parent="WIyWlLk6GJQsqaUBKTNV-1" vertex="1">
                    <mxGeometry x="500" y="347.5" width="40" height="20" as="geometry"/>
                </mxCell>
                <mxCell id="Sq9aumqmgyQMLLijxD1I-143" style="edgeStyle=orthogonalEdgeStyle;rounded=0;orthogonalLoop=1;jettySize=auto;html=1;exitX=0;exitY=0;exitDx=0;exitDy=0;strokeColor=#000000;" parent="WIyWlLk6GJQsqaUBKTNV-1" source="Sq9aumqmgyQMLLijxD1I-28" target="Sq9aumqmgyQMLLijxD1I-137" edge="1">
                    <mxGeometry relative="1" as="geometry"/>
                </mxCell>
                <mxCell id="Sq9aumqmgyQMLLijxD1I-144" style="edgeStyle=orthogonalEdgeStyle;rounded=0;orthogonalLoop=1;jettySize=auto;html=1;exitX=0.25;exitY=0;exitDx=0;exitDy=0;entryX=0.5;entryY=1;entryDx=0;entryDy=0;strokeColor=#000000;" parent="WIyWlLk6GJQsqaUBKTNV-1" source="Sq9aumqmgyQMLLijxD1I-28" target="Sq9aumqmgyQMLLijxD1I-134" edge="1">
                    <mxGeometry relative="1" as="geometry"/>
                </mxCell>
                <mxCell id="Sq9aumqmgyQMLLijxD1I-145" style="edgeStyle=orthogonalEdgeStyle;rounded=0;orthogonalLoop=1;jettySize=auto;html=1;exitX=0.5;exitY=0;exitDx=0;exitDy=0;strokeColor=#000000;" parent="WIyWlLk6GJQsqaUBKTNV-1" source="Sq9aumqmgyQMLLijxD1I-28" target="Sq9aumqmgyQMLLijxD1I-135" edge="1">
                    <mxGeometry relative="1" as="geometry"/>
                </mxCell>
                <mxCell id="Sq9aumqmgyQMLLijxD1I-146" style="edgeStyle=orthogonalEdgeStyle;rounded=0;orthogonalLoop=1;jettySize=auto;html=1;exitX=0.75;exitY=0;exitDx=0;exitDy=0;entryX=0;entryY=1;entryDx=0;entryDy=0;strokeColor=#000000;" parent="WIyWlLk6GJQsqaUBKTNV-1" source="Sq9aumqmgyQMLLijxD1I-28" target="Sq9aumqmgyQMLLijxD1I-136" edge="1">
                    <mxGeometry relative="1" as="geometry"/>
                </mxCell>
                <mxCell id="Sq9aumqmgyQMLLijxD1I-147" style="edgeStyle=orthogonalEdgeStyle;rounded=0;orthogonalLoop=1;jettySize=auto;html=1;exitX=1;exitY=0;exitDx=0;exitDy=0;entryX=0;entryY=1;entryDx=0;entryDy=0;strokeColor=#000000;" parent="WIyWlLk6GJQsqaUBKTNV-1" source="Sq9aumqmgyQMLLijxD1I-28" target="Sq9aumqmgyQMLLijxD1I-138" edge="1">
                    <mxGeometry relative="1" as="geometry"/>
                </mxCell>
                <mxCell id="Sq9aumqmgyQMLLijxD1I-148" style="edgeStyle=orthogonalEdgeStyle;rounded=0;orthogonalLoop=1;jettySize=auto;html=1;exitX=1;exitY=0.25;exitDx=0;exitDy=0;entryX=0;entryY=0.5;entryDx=0;entryDy=0;strokeColor=#000000;" parent="WIyWlLk6GJQsqaUBKTNV-1" source="Sq9aumqmgyQMLLijxD1I-28" target="Sq9aumqmgyQMLLijxD1I-139" edge="1">
                    <mxGeometry relative="1" as="geometry"/>
                </mxCell>
                <mxCell id="Sq9aumqmgyQMLLijxD1I-149" style="edgeStyle=orthogonalEdgeStyle;rounded=0;orthogonalLoop=1;jettySize=auto;html=1;exitX=1;exitY=0.5;exitDx=0;exitDy=0;entryX=0;entryY=0.5;entryDx=0;entryDy=0;strokeColor=#000000;" parent="WIyWlLk6GJQsqaUBKTNV-1" source="Sq9aumqmgyQMLLijxD1I-28" target="Sq9aumqmgyQMLLijxD1I-140" edge="1">
                    <mxGeometry relative="1" as="geometry"/>
                </mxCell>
                <mxCell id="Sq9aumqmgyQMLLijxD1I-150" style="edgeStyle=orthogonalEdgeStyle;rounded=0;orthogonalLoop=1;jettySize=auto;html=1;exitX=1;exitY=0.75;exitDx=0;exitDy=0;entryX=0;entryY=0.5;entryDx=0;entryDy=0;strokeColor=#000000;" parent="WIyWlLk6GJQsqaUBKTNV-1" source="Sq9aumqmgyQMLLijxD1I-28" target="Sq9aumqmgyQMLLijxD1I-141" edge="1">
                    <mxGeometry relative="1" as="geometry"/>
                </mxCell>
                <mxCell id="Sq9aumqmgyQMLLijxD1I-151" style="edgeStyle=orthogonalEdgeStyle;rounded=0;orthogonalLoop=1;jettySize=auto;html=1;exitX=0.75;exitY=1;exitDx=0;exitDy=0;entryX=0;entryY=0.5;entryDx=0;entryDy=0;strokeColor=#000000;" parent="WIyWlLk6GJQsqaUBKTNV-1" source="Sq9aumqmgyQMLLijxD1I-28" target="Sq9aumqmgyQMLLijxD1I-142" edge="1">
                    <mxGeometry relative="1" as="geometry"/>
                </mxCell>
                <mxCell id="Sq9aumqmgyQMLLijxD1I-28" value="CLIENTE" style="rounded=0;whiteSpace=wrap;html=1;" parent="WIyWlLk6GJQsqaUBKTNV-1" vertex="1">
                    <mxGeometry x="700" y="345" width="110" height="50" as="geometry"/>
                </mxCell>
                <mxCell id="Sq9aumqmgyQMLLijxD1I-30" value="" style="endArrow=none;html=1;exitX=1;exitY=0.5;exitDx=0;exitDy=0;entryX=0;entryY=0.5;entryDx=0;entryDy=0;" parent="WIyWlLk6GJQsqaUBKTNV-1" source="Sq9aumqmgyQMLLijxD1I-26" target="Sq9aumqmgyQMLLijxD1I-28" edge="1">
                    <mxGeometry width="50" height="50" relative="1" as="geometry">
                        <mxPoint x="620" y="367.5" as="sourcePoint"/>
                        <mxPoint x="670" y="317.5" as="targetPoint"/>
                    </mxGeometry>
                </mxCell>
                <mxCell id="Sq9aumqmgyQMLLijxD1I-31" value="I" style="text;html=1;strokeColor=none;fillColor=none;align=center;verticalAlign=middle;whiteSpace=wrap;rounded=0;" parent="WIyWlLk6GJQsqaUBKTNV-1" vertex="1">
                    <mxGeometry x="650" y="347.5" width="40" height="20" as="geometry"/>
                </mxCell>
                <mxCell id="Sq9aumqmgyQMLLijxD1I-32" value="" style="endArrow=none;html=1;entryX=0.5;entryY=1;entryDx=0;entryDy=0;exitX=0.5;exitY=0;exitDx=0;exitDy=0;" parent="WIyWlLk6GJQsqaUBKTNV-1" source="Sq9aumqmgyQMLLijxD1I-33" target="Sq9aumqmgyQMLLijxD1I-2" edge="1">
                    <mxGeometry width="50" height="50" relative="1" as="geometry">
                        <mxPoint x="440" y="440" as="sourcePoint"/>
                        <mxPoint x="480" y="440" as="targetPoint"/>
                    </mxGeometry>
                </mxCell>
                <mxCell id="Sq9aumqmgyQMLLijxD1I-33" value="" style="rhombus;whiteSpace=wrap;html=1;" parent="WIyWlLk6GJQsqaUBKTNV-1" vertex="1">
                    <mxGeometry x="420" y="440" width="40" height="42.5" as="geometry"/>
                </mxCell>
                <mxCell id="Sq9aumqmgyQMLLijxD1I-114" style="edgeStyle=orthogonalEdgeStyle;rounded=0;orthogonalLoop=1;jettySize=auto;html=1;exitX=0;exitY=0;exitDx=0;exitDy=0;entryX=1;entryY=0.5;entryDx=0;entryDy=0;strokeColor=#000000;" parent="WIyWlLk6GJQsqaUBKTNV-1" source="Sq9aumqmgyQMLLijxD1I-34" target="Sq9aumqmgyQMLLijxD1I-113" edge="1">
                    <mxGeometry relative="1" as="geometry"/>
                </mxCell>
                <mxCell id="Sq9aumqmgyQMLLijxD1I-115" style="edgeStyle=orthogonalEdgeStyle;rounded=0;orthogonalLoop=1;jettySize=auto;html=1;exitX=0;exitY=0.75;exitDx=0;exitDy=0;entryX=1;entryY=0.5;entryDx=0;entryDy=0;strokeColor=#000000;" parent="WIyWlLk6GJQsqaUBKTNV-1" source="Sq9aumqmgyQMLLijxD1I-34" target="Sq9aumqmgyQMLLijxD1I-111" edge="1">
                    <mxGeometry relative="1" as="geometry"/>
                </mxCell>
                <mxCell id="Sq9aumqmgyQMLLijxD1I-116" style="edgeStyle=orthogonalEdgeStyle;rounded=0;orthogonalLoop=1;jettySize=auto;html=1;exitX=0.25;exitY=1;exitDx=0;exitDy=0;entryX=0.5;entryY=0;entryDx=0;entryDy=0;strokeColor=#000000;" parent="WIyWlLk6GJQsqaUBKTNV-1" source="Sq9aumqmgyQMLLijxD1I-34" target="Sq9aumqmgyQMLLijxD1I-109" edge="1">
                    <mxGeometry relative="1" as="geometry"/>
                </mxCell>
                <mxCell id="Sq9aumqmgyQMLLijxD1I-117" style="edgeStyle=orthogonalEdgeStyle;rounded=0;orthogonalLoop=1;jettySize=auto;html=1;exitX=0.5;exitY=1;exitDx=0;exitDy=0;entryX=0.5;entryY=0;entryDx=0;entryDy=0;strokeColor=#000000;" parent="WIyWlLk6GJQsqaUBKTNV-1" source="Sq9aumqmgyQMLLijxD1I-34" target="Sq9aumqmgyQMLLijxD1I-110" edge="1">
                    <mxGeometry relative="1" as="geometry"/>
                </mxCell>
                <mxCell id="Sq9aumqmgyQMLLijxD1I-118" style="edgeStyle=orthogonalEdgeStyle;rounded=0;orthogonalLoop=1;jettySize=auto;html=1;exitX=1;exitY=1;exitDx=0;exitDy=0;entryX=0.5;entryY=0;entryDx=0;entryDy=0;strokeColor=#000000;" parent="WIyWlLk6GJQsqaUBKTNV-1" source="Sq9aumqmgyQMLLijxD1I-34" target="Sq9aumqmgyQMLLijxD1I-112" edge="1">
                    <mxGeometry relative="1" as="geometry"/>
                </mxCell>
                <mxCell id="Sq9aumqmgyQMLLijxD1I-34" value="AVERIES" style="rounded=0;whiteSpace=wrap;html=1;" parent="WIyWlLk6GJQsqaUBKTNV-1" vertex="1">
                    <mxGeometry x="380" y="570" width="120" height="60" as="geometry"/>
                </mxCell>
                <mxCell id="Sq9aumqmgyQMLLijxD1I-35" value="" style="endArrow=none;html=1;entryX=0.5;entryY=1;entryDx=0;entryDy=0;exitX=0.5;exitY=0;exitDx=0;exitDy=0;" parent="WIyWlLk6GJQsqaUBKTNV-1" source="Sq9aumqmgyQMLLijxD1I-34" target="Sq9aumqmgyQMLLijxD1I-33" edge="1">
                    <mxGeometry width="50" height="50" relative="1" as="geometry">
                        <mxPoint x="364" y="540" as="sourcePoint"/>
                        <mxPoint x="414" y="490" as="targetPoint"/>
                    </mxGeometry>
                </mxCell>
                <mxCell id="Sq9aumqmgyQMLLijxD1I-37" value="N" style="text;html=1;strokeColor=none;fillColor=none;align=center;verticalAlign=middle;whiteSpace=wrap;rounded=0;" parent="WIyWlLk6GJQsqaUBKTNV-1" vertex="1">
                    <mxGeometry x="440" y="540" width="40" height="20" as="geometry"/>
                </mxCell>
                <mxCell id="Sq9aumqmgyQMLLijxD1I-38" value="I" style="text;html=1;strokeColor=none;fillColor=none;align=center;verticalAlign=middle;whiteSpace=wrap;rounded=0;" parent="WIyWlLk6GJQsqaUBKTNV-1" vertex="1">
                    <mxGeometry x="430" y="400" width="40" height="20" as="geometry"/>
                </mxCell>
                <mxCell id="Sq9aumqmgyQMLLijxD1I-125" style="edgeStyle=orthogonalEdgeStyle;rounded=0;orthogonalLoop=1;jettySize=auto;html=1;exitX=0;exitY=0;exitDx=0;exitDy=0;strokeColor=#000000;" parent="WIyWlLk6GJQsqaUBKTNV-1" source="Sq9aumqmgyQMLLijxD1I-39" target="Sq9aumqmgyQMLLijxD1I-119" edge="1">
                    <mxGeometry relative="1" as="geometry"/>
                </mxCell>
                <mxCell id="Sq9aumqmgyQMLLijxD1I-126" style="edgeStyle=orthogonalEdgeStyle;rounded=0;orthogonalLoop=1;jettySize=auto;html=1;exitX=1;exitY=0;exitDx=0;exitDy=0;entryX=0;entryY=0.5;entryDx=0;entryDy=0;strokeColor=#000000;" parent="WIyWlLk6GJQsqaUBKTNV-1" source="Sq9aumqmgyQMLLijxD1I-39" target="Sq9aumqmgyQMLLijxD1I-120" edge="1">
                    <mxGeometry relative="1" as="geometry"/>
                </mxCell>
                <mxCell id="Sq9aumqmgyQMLLijxD1I-127" style="edgeStyle=orthogonalEdgeStyle;rounded=0;orthogonalLoop=1;jettySize=auto;html=1;exitX=1;exitY=0.25;exitDx=0;exitDy=0;entryX=0;entryY=0.5;entryDx=0;entryDy=0;strokeColor=#000000;" parent="WIyWlLk6GJQsqaUBKTNV-1" source="Sq9aumqmgyQMLLijxD1I-39" target="Sq9aumqmgyQMLLijxD1I-121" edge="1">
                    <mxGeometry relative="1" as="geometry"/>
                </mxCell>
                <mxCell id="Sq9aumqmgyQMLLijxD1I-128" style="edgeStyle=orthogonalEdgeStyle;rounded=0;orthogonalLoop=1;jettySize=auto;html=1;exitX=1;exitY=0.5;exitDx=0;exitDy=0;entryX=0;entryY=0.5;entryDx=0;entryDy=0;strokeColor=#000000;" parent="WIyWlLk6GJQsqaUBKTNV-1" source="Sq9aumqmgyQMLLijxD1I-39" target="Sq9aumqmgyQMLLijxD1I-122" edge="1">
                    <mxGeometry relative="1" as="geometry"/>
                </mxCell>
                <mxCell id="Sq9aumqmgyQMLLijxD1I-129" style="edgeStyle=orthogonalEdgeStyle;rounded=0;orthogonalLoop=1;jettySize=auto;html=1;exitX=1;exitY=1;exitDx=0;exitDy=0;strokeColor=#000000;" parent="WIyWlLk6GJQsqaUBKTNV-1" source="Sq9aumqmgyQMLLijxD1I-39" target="Sq9aumqmgyQMLLijxD1I-123" edge="1">
                    <mxGeometry relative="1" as="geometry"/>
                </mxCell>
                <mxCell id="Sq9aumqmgyQMLLijxD1I-130" style="edgeStyle=orthogonalEdgeStyle;rounded=0;orthogonalLoop=1;jettySize=auto;html=1;exitX=0.5;exitY=1;exitDx=0;exitDy=0;entryX=0.5;entryY=0;entryDx=0;entryDy=0;strokeColor=#000000;" parent="WIyWlLk6GJQsqaUBKTNV-1" source="Sq9aumqmgyQMLLijxD1I-39" target="Sq9aumqmgyQMLLijxD1I-124" edge="1">
                    <mxGeometry relative="1" as="geometry"/>
                </mxCell>
                <mxCell id="Sq9aumqmgyQMLLijxD1I-133" style="edgeStyle=orthogonalEdgeStyle;rounded=0;orthogonalLoop=1;jettySize=auto;html=1;exitX=0;exitY=1;exitDx=0;exitDy=0;entryX=0.5;entryY=0;entryDx=0;entryDy=0;strokeColor=#000000;" parent="WIyWlLk6GJQsqaUBKTNV-1" source="Sq9aumqmgyQMLLijxD1I-39" target="Sq9aumqmgyQMLLijxD1I-132" edge="1">
                    <mxGeometry relative="1" as="geometry"/>
                </mxCell>
                <mxCell id="Sq9aumqmgyQMLLijxD1I-39" value="EMPLEADOS" style="rounded=0;whiteSpace=wrap;html=1;" parent="WIyWlLk6GJQsqaUBKTNV-1" vertex="1">
                    <mxGeometry x="690" y="570" width="120" height="60" as="geometry"/>
                </mxCell>
                <mxCell id="Sq9aumqmgyQMLLijxD1I-40" value="" style="rhombus;whiteSpace=wrap;html=1;" parent="WIyWlLk6GJQsqaUBKTNV-1" vertex="1">
                    <mxGeometry x="590" y="578.75" width="40" height="42.5" as="geometry"/>
                </mxCell>
                <mxCell id="Sq9aumqmgyQMLLijxD1I-41" value="" style="endArrow=none;html=1;exitX=1;exitY=0.5;exitDx=0;exitDy=0;entryX=0;entryY=0.5;entryDx=0;entryDy=0;" parent="WIyWlLk6GJQsqaUBKTNV-1" source="Sq9aumqmgyQMLLijxD1I-40" target="Sq9aumqmgyQMLLijxD1I-39" edge="1">
                    <mxGeometry width="50" height="50" relative="1" as="geometry">
                        <mxPoint x="640" y="570" as="sourcePoint"/>
                        <mxPoint x="690" y="520" as="targetPoint"/>
                    </mxGeometry>
                </mxCell>
                <mxCell id="Sq9aumqmgyQMLLijxD1I-42" value="" style="endArrow=none;html=1;exitX=1;exitY=0.5;exitDx=0;exitDy=0;entryX=0;entryY=0.5;entryDx=0;entryDy=0;" parent="WIyWlLk6GJQsqaUBKTNV-1" source="Sq9aumqmgyQMLLijxD1I-34" target="Sq9aumqmgyQMLLijxD1I-40" edge="1">
                    <mxGeometry width="50" height="50" relative="1" as="geometry">
                        <mxPoint x="520" y="600" as="sourcePoint"/>
                        <mxPoint x="570" y="550" as="targetPoint"/>
                    </mxGeometry>
                </mxCell>
                <mxCell id="Sq9aumqmgyQMLLijxD1I-43" value="N" style="text;html=1;strokeColor=none;fillColor=none;align=center;verticalAlign=middle;whiteSpace=wrap;rounded=0;" parent="WIyWlLk6GJQsqaUBKTNV-1" vertex="1">
                    <mxGeometry x="500" y="578.75" width="40" height="20" as="geometry"/>
                </mxCell>
                <mxCell id="Sq9aumqmgyQMLLijxD1I-44" value="N" style="text;html=1;strokeColor=none;fillColor=none;align=center;verticalAlign=middle;whiteSpace=wrap;rounded=0;" parent="WIyWlLk6GJQsqaUBKTNV-1" vertex="1">
                    <mxGeometry x="640" y="575" width="40" height="20" as="geometry"/>
                </mxCell>
                <mxCell id="Sq9aumqmgyQMLLijxD1I-45" value="" style="curved=1;endArrow=classic;html=1;strokeColor=none;" parent="WIyWlLk6GJQsqaUBKTNV-1" edge="1">
                    <mxGeometry width="50" height="50" relative="1" as="geometry">
                        <mxPoint x="250" y="220" as="sourcePoint"/>
                        <mxPoint x="290" y="140" as="targetPoint"/>
                        <Array as="points">
                            <mxPoint x="300" y="240"/>
                            <mxPoint x="340" y="180"/>
                        </Array>
                    </mxGeometry>
                </mxCell>
                <mxCell id="Sq9aumqmgyQMLLijxD1I-46" value="" style="endArrow=none;html=1;strokeColor=#000000;curved=1;" parent="WIyWlLk6GJQsqaUBKTNV-1" edge="1">
                    <mxGeometry width="50" height="50" relative="1" as="geometry">
                        <mxPoint x="450" y="228" as="sourcePoint"/>
                        <mxPoint x="540" y="250" as="targetPoint"/>
                        <Array as="points">
                            <mxPoint x="530" y="168"/>
                        </Array>
                    </mxGeometry>
                </mxCell>
                <mxCell id="Sq9aumqmgyQMLLijxD1I-47" value="" style="triangle;whiteSpace=wrap;html=1;rotation=-75;" parent="WIyWlLk6GJQsqaUBKTNV-1" vertex="1">
                    <mxGeometry x="487.42" y="206.63" width="30" height="40" as="geometry"/>
                </mxCell>
                <mxCell id="Sq9aumqmgyQMLLijxD1I-48" value="" style="endArrow=none;html=1;strokeColor=#000000;entryX=0;entryY=0.5;entryDx=0;entryDy=0;exitX=0.75;exitY=0;exitDx=0;exitDy=0;" parent="WIyWlLk6GJQsqaUBKTNV-1" source="Sq9aumqmgyQMLLijxD1I-2" target="Sq9aumqmgyQMLLijxD1I-47" edge="1">
                    <mxGeometry width="50" height="50" relative="1" as="geometry">
                        <mxPoint x="425" y="310" as="sourcePoint"/>
                        <mxPoint x="475" y="260" as="targetPoint"/>
                    </mxGeometry>
                </mxCell>
                <mxCell id="Sq9aumqmgyQMLLijxD1I-49" value="" style="endArrow=none;html=1;strokeColor=#000000;rounded=0;exitX=0.5;exitY=1;exitDx=0;exitDy=0;entryX=0.5;entryY=1;entryDx=0;entryDy=0;" parent="WIyWlLk6GJQsqaUBKTNV-1" source="Sq9aumqmgyQMLLijxD1I-47" target="Sq9aumqmgyQMLLijxD1I-54" edge="1">
                    <mxGeometry width="50" height="50" relative="1" as="geometry">
                        <mxPoint x="540" y="230" as="sourcePoint"/>
                        <mxPoint x="580" y="200" as="targetPoint"/>
                        <Array as="points"/>
                    </mxGeometry>
                </mxCell>
                <mxCell id="Sq9aumqmgyQMLLijxD1I-50" value="" style="endArrow=none;html=1;strokeColor=#000000;exitX=0.5;exitY=0;exitDx=0;exitDy=0;entryX=0.5;entryY=1;entryDx=0;entryDy=0;" parent="WIyWlLk6GJQsqaUBKTNV-1" source="Sq9aumqmgyQMLLijxD1I-47" target="Sq9aumqmgyQMLLijxD1I-53" edge="1">
                    <mxGeometry width="50" height="50" relative="1" as="geometry">
                        <mxPoint x="450" y="190" as="sourcePoint"/>
                        <mxPoint x="470" y="170" as="targetPoint"/>
                    </mxGeometry>
                </mxCell>
                <mxCell id="Sq9aumqmgyQMLLijxD1I-57" style="edgeStyle=orthogonalEdgeStyle;rounded=0;orthogonalLoop=1;jettySize=auto;html=1;exitX=0.5;exitY=0;exitDx=0;exitDy=0;strokeColor=#000000;" parent="WIyWlLk6GJQsqaUBKTNV-1" source="Sq9aumqmgyQMLLijxD1I-53" target="Sq9aumqmgyQMLLijxD1I-58" edge="1">
                    <mxGeometry relative="1" as="geometry">
                        <mxPoint x="475" y="80" as="targetPoint"/>
                    </mxGeometry>
                </mxCell>
                <mxCell id="IBrn08lLDI3FBm13KzZd-0" style="edgeStyle=orthogonalEdgeStyle;rounded=0;orthogonalLoop=1;jettySize=auto;html=1;exitX=0.25;exitY=0;exitDx=0;exitDy=0;entryX=0.5;entryY=1;entryDx=0;entryDy=0;" parent="WIyWlLk6GJQsqaUBKTNV-1" source="Sq9aumqmgyQMLLijxD1I-53" target="IBrn08lLDI3FBm13KzZd-1" edge="1">
                    <mxGeometry relative="1" as="geometry">
                        <mxPoint x="430" y="90" as="targetPoint"/>
                    </mxGeometry>
                </mxCell>
                <mxCell id="Sq9aumqmgyQMLLijxD1I-53" value="COMPRA" style="rounded=1;whiteSpace=wrap;html=1;" parent="WIyWlLk6GJQsqaUBKTNV-1" vertex="1">
                    <mxGeometry x="440" y="130" width="70" height="30" as="geometry"/>
                </mxCell>
                <mxCell id="Sq9aumqmgyQMLLijxD1I-59" style="edgeStyle=orthogonalEdgeStyle;rounded=0;orthogonalLoop=1;jettySize=auto;html=1;exitX=0.5;exitY=0;exitDx=0;exitDy=0;strokeColor=#000000;entryX=0.5;entryY=1;entryDx=0;entryDy=0;" parent="WIyWlLk6GJQsqaUBKTNV-1" source="Sq9aumqmgyQMLLijxD1I-54" target="Sq9aumqmgyQMLLijxD1I-60" edge="1">
                    <mxGeometry relative="1" as="geometry">
                        <mxPoint x="600" y="70" as="targetPoint"/>
                    </mxGeometry>
                </mxCell>
                <mxCell id="Sq9aumqmgyQMLLijxD1I-63" style="edgeStyle=orthogonalEdgeStyle;rounded=0;orthogonalLoop=1;jettySize=auto;html=1;exitX=0.75;exitY=0;exitDx=0;exitDy=0;entryX=0.5;entryY=1;entryDx=0;entryDy=0;strokeColor=#000000;" parent="WIyWlLk6GJQsqaUBKTNV-1" source="Sq9aumqmgyQMLLijxD1I-54" target="Sq9aumqmgyQMLLijxD1I-62" edge="1">
                    <mxGeometry relative="1" as="geometry"/>
                </mxCell>
                <mxCell id="Sq9aumqmgyQMLLijxD1I-65" style="edgeStyle=orthogonalEdgeStyle;rounded=0;orthogonalLoop=1;jettySize=auto;html=1;exitX=1;exitY=0;exitDx=0;exitDy=0;entryX=0.5;entryY=1;entryDx=0;entryDy=0;strokeColor=#000000;" parent="WIyWlLk6GJQsqaUBKTNV-1" source="Sq9aumqmgyQMLLijxD1I-54" target="Sq9aumqmgyQMLLijxD1I-64" edge="1">
                    <mxGeometry relative="1" as="geometry"/>
                </mxCell>
                <mxCell id="IBrn08lLDI3FBm13KzZd-3" style="edgeStyle=orthogonalEdgeStyle;rounded=0;orthogonalLoop=1;jettySize=auto;html=1;exitX=0;exitY=0;exitDx=0;exitDy=0;entryX=0.5;entryY=1;entryDx=0;entryDy=0;" parent="WIyWlLk6GJQsqaUBKTNV-1" source="Sq9aumqmgyQMLLijxD1I-54" target="IBrn08lLDI3FBm13KzZd-2" edge="1">
                    <mxGeometry relative="1" as="geometry"/>
                </mxCell>
                <mxCell id="Sq9aumqmgyQMLLijxD1I-54" value="ALQUILER" style="rounded=1;whiteSpace=wrap;html=1;" parent="WIyWlLk6GJQsqaUBKTNV-1" vertex="1">
                    <mxGeometry x="560" y="140" width="80" height="30" as="geometry"/>
                </mxCell>
                <mxCell id="Sq9aumqmgyQMLLijxD1I-58" value="PRECIO" style="ellipse;whiteSpace=wrap;html=1;" parent="WIyWlLk6GJQsqaUBKTNV-1" vertex="1">
                    <mxGeometry x="440" y="40" width="60" height="30" as="geometry"/>
                </mxCell>
                <mxCell id="Sq9aumqmgyQMLLijxD1I-60" value="F.INICIO" style="ellipse;whiteSpace=wrap;html=1;" parent="WIyWlLk6GJQsqaUBKTNV-1" vertex="1">
                    <mxGeometry x="540" y="30" width="60" height="30" as="geometry"/>
                </mxCell>
                <mxCell id="Sq9aumqmgyQMLLijxD1I-62" value="F.FINAL" style="ellipse;whiteSpace=wrap;html=1;" parent="WIyWlLk6GJQsqaUBKTNV-1" vertex="1">
                    <mxGeometry x="610" y="30" width="60" height="30" as="geometry"/>
                </mxCell>
                <mxCell id="Sq9aumqmgyQMLLijxD1I-64" value="MENSUALIDAD" style="ellipse;whiteSpace=wrap;html=1;" parent="WIyWlLk6GJQsqaUBKTNV-1" vertex="1">
                    <mxGeometry x="660" y="70" width="100" height="30" as="geometry"/>
                </mxCell>
                <mxCell id="Sq9aumqmgyQMLLijxD1I-66" value="TIPO" style="ellipse;whiteSpace=wrap;html=1;" parent="WIyWlLk6GJQsqaUBKTNV-1" vertex="1">
                    <mxGeometry x="340" y="206.63" width="60" height="30" as="geometry"/>
                </mxCell>
                <mxCell id="Sq9aumqmgyQMLLijxD1I-78" value="IDCOMP" style="ellipse;whiteSpace=wrap;html=1;" parent="WIyWlLk6GJQsqaUBKTNV-1" vertex="1">
                    <mxGeometry x="210" y="100" width="60" height="30" as="geometry"/>
                </mxCell>
                <mxCell id="Sq9aumqmgyQMLLijxD1I-80" value="TIPO" style="ellipse;whiteSpace=wrap;html=1;" parent="WIyWlLk6GJQsqaUBKTNV-1" vertex="1">
                    <mxGeometry x="142.5" y="60" width="60" height="30" as="geometry"/>
                </mxCell>
                <mxCell id="Sq9aumqmgyQMLLijxD1I-81" value="PRECIO" style="ellipse;whiteSpace=wrap;html=1;" parent="WIyWlLk6GJQsqaUBKTNV-1" vertex="1">
                    <mxGeometry x="50" y="60" width="60" height="30" as="geometry"/>
                </mxCell>
                <mxCell id="Sq9aumqmgyQMLLijxD1I-82" value="IDSALIDA" style="ellipse;whiteSpace=wrap;html=1;" parent="WIyWlLk6GJQsqaUBKTNV-1" vertex="1">
                    <mxGeometry x="380" y="176.63" width="70" height="30" as="geometry"/>
                </mxCell>
                <mxCell id="Sq9aumqmgyQMLLijxD1I-84" value="DONACION" style="ellipse;whiteSpace=wrap;html=1;" parent="WIyWlLk6GJQsqaUBKTNV-1" vertex="1">
                    <mxGeometry x="-80" y="230" width="70" height="30" as="geometry"/>
                </mxCell>
                <mxCell id="Sq9aumqmgyQMLLijxD1I-85" value="CANTIDAD" style="ellipse;whiteSpace=wrap;html=1;" parent="WIyWlLk6GJQsqaUBKTNV-1" vertex="1">
                    <mxGeometry x="-90" y="280" width="70" height="30" as="geometry"/>
                </mxCell>
                <mxCell id="Sq9aumqmgyQMLLijxD1I-86" value="NOMBRE" style="ellipse;whiteSpace=wrap;html=1;" parent="WIyWlLk6GJQsqaUBKTNV-1" vertex="1">
                    <mxGeometry x="-130" y="317.5" width="60" height="30" as="geometry"/>
                </mxCell>
                <mxCell id="Sq9aumqmgyQMLLijxD1I-87" value="IDPROD" style="ellipse;whiteSpace=wrap;html=1;" parent="WIyWlLk6GJQsqaUBKTNV-1" vertex="1">
                    <mxGeometry x="-140" y="355" width="60" height="30" as="geometry"/>
                </mxCell>
                <mxCell id="Sq9aumqmgyQMLLijxD1I-88" value="TIPO" style="ellipse;whiteSpace=wrap;html=1;" parent="WIyWlLk6GJQsqaUBKTNV-1" vertex="1">
                    <mxGeometry x="-120" y="400" width="60" height="30" as="geometry"/>
                </mxCell>
                <mxCell id="Sq9aumqmgyQMLLijxD1I-94" value="EMPRESA" style="ellipse;whiteSpace=wrap;html=1;" parent="WIyWlLk6GJQsqaUBKTNV-1" vertex="1">
                    <mxGeometry x="-100" y="560" width="70" height="30" as="geometry"/>
                </mxCell>
                <mxCell id="Sq9aumqmgyQMLLijxD1I-95" value="DIRECC" style="ellipse;whiteSpace=wrap;html=1;" parent="WIyWlLk6GJQsqaUBKTNV-1" vertex="1">
                    <mxGeometry x="-160" y="620" width="60" height="30" as="geometry"/>
                </mxCell>
                <mxCell id="Sq9aumqmgyQMLLijxD1I-96" value="DNI" style="ellipse;whiteSpace=wrap;html=1;" parent="WIyWlLk6GJQsqaUBKTNV-1" vertex="1">
                    <mxGeometry x="-100" y="500" width="60" height="30" as="geometry"/>
                </mxCell>
                <mxCell id="Sq9aumqmgyQMLLijxD1I-97" value="NOMBRE&lt;span style=&quot;color: rgba(0 , 0 , 0 , 0) ; font-family: monospace ; font-size: 0px&quot;&gt;%3CmxGraphModel%3E%3Croot%3E%3CmxCell%20id%3D%220%22%2F%3E%3CmxCell%20id%3D%221%22%20parent%3D%220%22%2F%3E%3CmxCell%20id%3D%222%22%20value%3D%22%22%20style%3D%22ellipse%3BwhiteSpace%3Dwrap%3Bhtml%3D1%3B%22%20vertex%3D%221%22%20parent%3D%221%22%3E%3CmxGeometry%20x%3D%22450%22%20y%3D%2250%22%20width%3D%2260%22%20height%3D%2230%22%20as%3D%22geometry%22%2F%3E%3C%2FmxCell%3E%3C%2Froot%3E%3C%2FmxGraphModel%3E&lt;/span&gt;" style="ellipse;whiteSpace=wrap;html=1;" parent="WIyWlLk6GJQsqaUBKTNV-1" vertex="1">
                    <mxGeometry x="-100" y="670" width="60" height="30" as="geometry"/>
                </mxCell>
                <mxCell id="Sq9aumqmgyQMLLijxD1I-98" value="TELF" style="ellipse;whiteSpace=wrap;html=1;" parent="WIyWlLk6GJQsqaUBKTNV-1" vertex="1">
                    <mxGeometry x="-20" y="720" width="60" height="30" as="geometry"/>
                </mxCell>
                <mxCell id="Sq9aumqmgyQMLLijxD1I-99" value="CORREO" style="ellipse;whiteSpace=wrap;html=1;" parent="WIyWlLk6GJQsqaUBKTNV-1" vertex="1">
                    <mxGeometry x="82.5" y="710" width="60" height="30" as="geometry"/>
                </mxCell>
                <mxCell id="Sq9aumqmgyQMLLijxD1I-100" value="IDPROV" style="ellipse;whiteSpace=wrap;html=1;" parent="WIyWlLk6GJQsqaUBKTNV-1" vertex="1">
                    <mxGeometry x="170" y="690" width="60" height="30" as="geometry"/>
                </mxCell>
                <mxCell id="Sq9aumqmgyQMLLijxD1I-109" value="IDEMP" style="ellipse;whiteSpace=wrap;html=1;" parent="WIyWlLk6GJQsqaUBKTNV-1" vertex="1">
                    <mxGeometry x="354" y="680" width="60" height="30" as="geometry"/>
                </mxCell>
                <mxCell id="Sq9aumqmgyQMLLijxD1I-110" value="URGÉNCIA" style="ellipse;whiteSpace=wrap;html=1;" parent="WIyWlLk6GJQsqaUBKTNV-1" vertex="1">
                    <mxGeometry x="420" y="690" width="70" height="30" as="geometry"/>
                </mxCell>
                <mxCell id="Sq9aumqmgyQMLLijxD1I-111" value="AVERIA" style="ellipse;whiteSpace=wrap;html=1;" parent="WIyWlLk6GJQsqaUBKTNV-1" vertex="1">
                    <mxGeometry x="270" y="621.25" width="60" height="30" as="geometry"/>
                </mxCell>
                <mxCell id="Sq9aumqmgyQMLLijxD1I-112" value="DESCR" style="ellipse;whiteSpace=wrap;html=1;" parent="WIyWlLk6GJQsqaUBKTNV-1" vertex="1">
                    <mxGeometry x="510" y="670" width="60" height="30" as="geometry"/>
                </mxCell>
                <mxCell id="Sq9aumqmgyQMLLijxD1I-113" value="IDAVER" style="ellipse;whiteSpace=wrap;html=1;" parent="WIyWlLk6GJQsqaUBKTNV-1" vertex="1">
                    <mxGeometry x="240" y="530" width="60" height="30" as="geometry"/>
                </mxCell>
                <mxCell id="Sq9aumqmgyQMLLijxD1I-119" value="IDEMPLE" style="ellipse;whiteSpace=wrap;html=1;" parent="WIyWlLk6GJQsqaUBKTNV-1" vertex="1">
                    <mxGeometry x="660" y="460" width="60" height="30" as="geometry"/>
                </mxCell>
                <mxCell id="Sq9aumqmgyQMLLijxD1I-120" value="CORREO" style="ellipse;whiteSpace=wrap;html=1;" parent="WIyWlLk6GJQsqaUBKTNV-1" vertex="1">
                    <mxGeometry x="900" y="500" width="60" height="30" as="geometry"/>
                </mxCell>
                <mxCell id="Sq9aumqmgyQMLLijxD1I-121" value="DNI" style="ellipse;whiteSpace=wrap;html=1;" parent="WIyWlLk6GJQsqaUBKTNV-1" vertex="1">
                    <mxGeometry x="920" y="545" width="60" height="30" as="geometry"/>
                </mxCell>
                <mxCell id="Sq9aumqmgyQMLLijxD1I-122" value="TELF" style="ellipse;whiteSpace=wrap;html=1;" parent="WIyWlLk6GJQsqaUBKTNV-1" vertex="1">
                    <mxGeometry x="910" y="590" width="60" height="30" as="geometry"/>
                </mxCell>
                <mxCell id="Sq9aumqmgyQMLLijxD1I-123" value="DIRECC" style="ellipse;whiteSpace=wrap;html=1;" parent="WIyWlLk6GJQsqaUBKTNV-1" vertex="1">
                    <mxGeometry x="827" y="690" width="60" height="30" as="geometry"/>
                </mxCell>
                <mxCell id="Sq9aumqmgyQMLLijxD1I-124" value="SALARIO" style="ellipse;whiteSpace=wrap;html=1;" parent="WIyWlLk6GJQsqaUBKTNV-1" vertex="1">
                    <mxGeometry x="720" y="710" width="60" height="30" as="geometry"/>
                </mxCell>
                <mxCell id="Sq9aumqmgyQMLLijxD1I-132" value="CONTRATO" style="ellipse;whiteSpace=wrap;html=1;" parent="WIyWlLk6GJQsqaUBKTNV-1" vertex="1">
                    <mxGeometry x="630" y="680" width="60" height="30" as="geometry"/>
                </mxCell>
                <mxCell id="Sq9aumqmgyQMLLijxD1I-134" value="APELLIDO" style="ellipse;whiteSpace=wrap;html=1;" parent="WIyWlLk6GJQsqaUBKTNV-1" vertex="1">
                    <mxGeometry x="720" y="190" width="65" height="30" as="geometry"/>
                </mxCell>
                <mxCell id="Sq9aumqmgyQMLLijxD1I-135" value="IDCLIENTE" style="ellipse;whiteSpace=wrap;html=1;" parent="WIyWlLk6GJQsqaUBKTNV-1" vertex="1">
                    <mxGeometry x="780" y="176.63" width="80" height="30" as="geometry"/>
                </mxCell>
                <mxCell id="Sq9aumqmgyQMLLijxD1I-136" value="CORREO" style="ellipse;whiteSpace=wrap;html=1;" parent="WIyWlLk6GJQsqaUBKTNV-1" vertex="1">
                    <mxGeometry x="860" y="190" width="60" height="30" as="geometry"/>
                </mxCell>
                <mxCell id="Sq9aumqmgyQMLLijxD1I-137" value="NOMBRE" style="ellipse;whiteSpace=wrap;html=1;" parent="WIyWlLk6GJQsqaUBKTNV-1" vertex="1">
                    <mxGeometry x="680" y="236.63" width="60" height="30" as="geometry"/>
                </mxCell>
                <mxCell id="Sq9aumqmgyQMLLijxD1I-138" value="TELEFONO" style="ellipse;whiteSpace=wrap;html=1;" parent="WIyWlLk6GJQsqaUBKTNV-1" vertex="1">
                    <mxGeometry x="920" y="206.63" width="70" height="30" as="geometry"/>
                </mxCell>
                <mxCell id="Sq9aumqmgyQMLLijxD1I-139" value="DATOSBANCARIOS" style="ellipse;whiteSpace=wrap;html=1;" parent="WIyWlLk6GJQsqaUBKTNV-1" vertex="1">
                    <mxGeometry x="920" y="287.5" width="130" height="30" as="geometry"/>
                </mxCell>
                <mxCell id="Sq9aumqmgyQMLLijxD1I-140" value="DNI" style="ellipse;whiteSpace=wrap;html=1;" parent="WIyWlLk6GJQsqaUBKTNV-1" vertex="1">
                    <mxGeometry x="950" y="320" width="60" height="30" as="geometry"/>
                </mxCell>
                <mxCell id="Sq9aumqmgyQMLLijxD1I-141" value="CP" style="ellipse;whiteSpace=wrap;html=1;" parent="WIyWlLk6GJQsqaUBKTNV-1" vertex="1">
                    <mxGeometry x="910" y="362.5" width="60" height="30" as="geometry"/>
                </mxCell>
                <mxCell id="Sq9aumqmgyQMLLijxD1I-142" value="DIRECC" style="ellipse;whiteSpace=wrap;html=1;" parent="WIyWlLk6GJQsqaUBKTNV-1" vertex="1">
                    <mxGeometry x="860" y="410" width="60" height="30" as="geometry"/>
                </mxCell>
                <mxCell id="IBrn08lLDI3FBm13KzZd-1" value="compra" style="ellipse;whiteSpace=wrap;html=1;" parent="WIyWlLk6GJQsqaUBKTNV-1" vertex="1">
                    <mxGeometry x="360" y="50" width="60" height="30" as="geometry"/>
                </mxCell>
                <mxCell id="IBrn08lLDI3FBm13KzZd-2" value="alquilado" style="ellipse;whiteSpace=wrap;html=1;" parent="WIyWlLk6GJQsqaUBKTNV-1" vertex="1">
                    <mxGeometry x="500" y="70" width="60" height="30" as="geometry"/>
                </mxCell>
                <mxCell id="2" value="CANTIDAD_SALIDA" style="ellipse;whiteSpace=wrap;html=1;" vertex="1" parent="WIyWlLk6GJQsqaUBKTNV-1">
                    <mxGeometry x="197" y="260" width="157" height="30" as="geometry"/>
                </mxCell>
            </root>
        </mxGraphModel>
    </diagram>
</mxfile>